<svg width="160mm" height="24mm" version="1.1" viewBox="0 0 160 24" xmlns="http://www.w3.org/2000/svg">
 <g transform="matrix(.83727 0 0 .83727 12.351 41.896)">
  <g transform="translate(-26.992 -116.64)">
   <text transform="matrix(1.1944 0 0 1.1944 -14.751 -50.039)" x="52.120888" y="118.67165" fill="#000000" fill-opacity=".83093" font-family="'Fugaz One'" font-size="25.268px" stroke-width="1.5792" style="font-variant-caps:normal;font-variant-east-asian:normal;font-variant-ligatures:normal;font-variant-numeric:normal" xml:space="preserve"><tspan x="52.120888" y="118.67165" fill="#000000" font-family="'Fugaz One'" font-size="25.268px" stroke-width="1.5792" style="font-variant-caps:normal;font-variant-east-asian:normal;font-variant-ligatures:normal;font-variant-numeric:normal">LAMPVOLT</tspan></text>
   <g transform="translate(-20.633)" fill-opacity=".83093">
    <path d="m47.21 66.605a14.335 14.335 0 0 0-14.336 14.335 14.335 14.335 0 0 0 14.336 14.335 14.335 14.335 0 0 0 14.335-14.335 14.335 14.335 0 0 0-14.335-14.335zm0 4.115a10.22 10.22 0 0 1 10.22 10.22 10.22 10.22 0 0 1-10.22 10.22 10.22 10.22 0 0 1-10.22-10.22 10.22 10.22 0 0 1 10.22-10.22z" stroke-width=".13225"/>
    <path d="m48.215 73.281-5.9892 13.369 11.67-4.7962-6.6054-0.56765 0.6864-5.9468z" stroke-width=".029623"/>
   </g>
   <g transform="matrix(1.1944 0 0 1.1944 -14.751 -50.039)" fill-opacity=".83093" stroke-width="1.5792" aria-label="LAMPVOLT">
    <path d="m64.123 118.67h-11.522l3.209-18.193h4.5482l-2.5015 14.251h6.9738z"/>
    <path d="m75.14 118.67 0.1516-3.967h-4.2197l-1.2381 3.967h-4.8261l6.4937-18.193h8.3383l0.10107 18.193zm-1.036-13.771-1.9961 6.4179h3.31l0.27794-6.4179z"/>
    <path d="m90.3 100.48 2.7036 8.7173 5.8115-8.7173h4.7756l-3.209 18.193h-4.5734l1.8193-10.259-3.8912 6.1147h-3.31l-1.7182-6.1147-1.8193 10.259h-4.5482l3.209-18.193z"/>
    <path d="m112.51 113.14h-3.0068l-0.98543 5.5336h-4.5482l3.209-18.193h7.7066q2.8552 0 4.0681 1.3139 0.88437 1.0107 0.88437 2.5773 0 0.53062-0.10107 1.1118l-0.50535 2.8552q-0.37902 2.0972-2.2235 3.4616-1.8445 1.3392-4.4976 1.3392zm0.78329-8.7173h-2.2741l-0.83383 4.7756h2.2488q2.0719 0 2.4004-1.8445l0.17687-1.036q0.0505-0.22741 0.0505-0.60642 0-0.37902-0.37901-0.83383-0.37902-0.45482-1.3897-0.45482z"/>
    <path d="m127.57 114.25 4.8008-13.771h4.9272l-6.898 18.193h-8.0856l-0.20214-18.193h4.9524l-0.0758 13.771z"/>
    <path d="m146.01 100.3q6.0895 0 6.0895 4.9777 0 0.83383-0.17687 1.794l-0.88436 5.0535q-0.60642 3.5122-2.6278 5.2051-2.0214 1.6929-5.6852 1.6929t-5.104-1.6929q-0.98544-1.1623-0.98544-3.209 0-0.90963 0.20214-1.9961l0.88437-5.0535q1.1876-6.7717 8.2877-6.7717zm-2.6026 14.807q1.2634 0 2.0214-0.65696 0.75803-0.65695 1.0612-2.4257l0.85909-4.8514q0.0758-0.50535 0.0758-0.90963 0-2.0467-2.0719-2.0467-2.6026 0.0505-3.1079 2.9563l-0.8591 4.8514q-0.10107 0.63169-0.10107 1.3139 0 1.7687 2.1225 1.7687z"/>
    <path d="m164.49 118.67h-11.522l3.209-18.193h4.5482l-2.5015 14.251h6.9738z"/>
    <path d="m182.15 104.42h-6.2158l-2.5015 14.251h-4.5734l2.5015-14.251h-6.2411l0.70749-3.9417h17.03z"/>
   </g>
   <g transform="translate(-20.633)">
    <path d="m47.21 66.605a14.335 14.335 0 0 0-14.336 14.335 14.335 14.335 0 0 0 14.336 14.335 14.335 14.335 0 0 0 14.335-14.335 14.335 14.335 0 0 0-14.335-14.335zm0 4.1149a10.22 10.22 0 0 1 10.219 10.22 10.22 10.22 0 0 1-10.219 10.22 10.22 10.22 0 0 1-10.22-10.22 10.22 10.22 0 0 1 10.22-10.22zm1.0054 2.5614-0.87828 1.9615-5.1104 11.408 11.67-4.7963-6.6053-0.56783 0.68633-5.9468 0.23762-2.0584z" fill-opacity=".83093" stroke-width=".13225"/>
   </g>
  </g>
 </g>
</svg>
