<svg width="4400" height="522" version="1.1" viewBox="0 0 1408 167.04" xmlns="http://www.w3.org/2000/svg">
 <g fill-rule="evenodd">
  <g transform="translate(5.9962 -45.2)">
   <path d="m65.837 47.58 0.0012 6.25e-4c-2.204 0-3.5181 1.7281-2.9331 3.8681l29.068 104.5c0.585 2.137 2.8408 3.8841 5.0538 3.8688l36.094-0.25c2.2069-0.0153 4.3849-1.75 4.8619-3.9l19.23-82.468h21.352l-21.729 82.049c-0.516 2.164 0.86425 3.8975 3.0762 3.8975h5.7088c2.212 0 4.42-1.7445 4.93-3.8975l21.609-82.049h9.5625l-22.792 83.477c-0.525 2.142 0.833 3.8781 3.05 3.8781h6.785v1e-3c2.21 0 4.4314-1.7471 4.9544-3.8781l22.809-83.478h21.195c3.1697 0 5.7219-2.1582 5.7219-4.8388v-15.302c0-2.6805-2.5522-4.8388-5.7219-4.8388h-85.674c-0.33685 0-0.66506 0.02947-0.98563 0.07625l-13.284-0.15688c-2.2068-0.02607-4.3389 1.756-4.7619 3.92l-14.028 71.771c-0.38167 1.9543-2.164 3.569-4.1275 3.8669-1.9865-0.2956-3.8649-1.892-4.37-3.8131l-18.886-71.878c-0.56-2.136-2.8013-3.8669-5.0062-3.8669zm-50.117 0.0087c-2.204 0-3.5742 1.7375-3.0562 3.8925l4.49 18.688c0.517 2.15 1.356 5.6385 1.87 7.7825l30.377 126.42c0.516 2.148 2.7233 3.8908 4.9262 3.89l122.85-0.0475c2.2085-3e-3 3.9962-1.7965 3.9912-4.005l6.6356-24.748c-2e-3 -2.2103-1.7928-4.0015-4.0031-4.0038l-102.8-0.25933c-2.211-6e-3 -4.459-1.7319-5.02-3.8719l-31.481-119.86c-0.562-2.138-2.8161-3.8712-5.0081-3.8712z"/>
   <g stroke="#000" stroke-width="2.2955" aria-label="LAMPVOLT">
    <path d="m351.95 206.87h-99.966l27.841-157.84h39.46l-21.703 123.64h60.506z"/>
    <path d="m447.54 206.87 1.3153-34.418h-36.61l-10.742 34.418h-41.872l56.34-157.84h72.344l0.87689 157.84zm-8.9882-119.48-17.319 55.683h28.718l2.4114-55.683z"/>
    <path d="m579.07 49.033 23.457 75.632 50.421-75.632h41.433l-27.841 157.84h-39.679l15.784-89.005-33.76 53.052h-28.718l-14.907-53.052-15.784 89.005h-39.46l27.841-157.84z"/>
    <path d="m771.77 158.86h-26.088l-8.5497 48.01h-39.46l27.841-157.84h66.863q24.772 0 35.295 11.4 7.6728 8.7689 7.6728 22.361 0 4.6037-0.87689 9.6458l-4.3845 24.772q-3.2883 18.196-19.292 30.034-16.003 11.619-39.022 11.619zm6.7959-75.632h-19.73l-7.2344 41.433h19.511q17.976 0 20.826-16.003l1.5346-8.9881q0.43845-1.973 0.43845-5.2614t-3.2884-7.2344q-3.2883-3.946-12.057-3.946z"/>
    <path d="m902.42 168.51 41.652-119.48h42.748l-59.848 157.84h-70.151l-1.7538-157.84h42.968l-0.65767 119.48z"/>
    <path d="m1062.5 47.498q52.833 0 52.833 43.187 0 7.2344-1.5345 15.565l-7.6729 43.845q-5.2613 30.472-22.799 45.16-17.538 14.688-49.325 14.688-31.787 0-44.283-14.688-8.5497-10.084-8.5497-27.841 0-7.892 1.7538-17.319l7.6728-43.845q10.303-58.752 71.905-58.752zm-22.58 128.46q10.961 0 17.538-5.6998t9.2074-21.045l7.4536-42.091q0.6577-4.3845 0.6577-7.892 0-17.757-17.976-17.757-22.58 0.43845-26.964 25.649l-7.4535 42.091q-0.8769 5.4806-0.8769 11.4 0 15.346 18.415 15.346z"/>
    <path d="m1222.7 206.87h-99.966l27.841-157.84h39.46l-21.703 123.64h60.506z"/>
    <path d="m1375.9 83.231h-53.929l-21.703 123.64h-39.679l21.703-123.64h-54.148l6.1383-34.199h147.76z"/>
   </g>
  </g>
 </g>
</svg>
