<svg width="512mm" height="512mm" version="1.1" viewBox="0 0 512 512" xmlns="http://www.w3.org/2000/svg">
 <path d="m132.09 95.866 3e-3 9.1e-4c-4.3931 0-7.0124 3.4446-5.8464 7.7101l57.938 208.29c1.166 4.2595 5.6624 7.7419 10.073 7.7113l71.943-0.49831c4.3989-0.0306 8.7401-3.4882 9.6908-7.7736l38.33-164.38h42.56l-43.31 163.54c-1.0285 4.3133 1.7226 7.7686 6.1317 7.7686h11.379c4.409 0 8.8101-3.4772 9.8266-7.7686l43.072-163.54h19.06l-45.429 166.39c-1.0464 4.2695 1.6604 7.73 6.0794 7.73h13.524v2e-3c4.405 0 8.8328-3.4824 9.8752-7.73l45.463-166.39h42.247c6.3179 0 11.405-4.3018 11.405-9.6448v-30.5c0-5.343-5.0871-9.6447-11.405-9.6447h-170.77c-0.67141 0-1.3256 0.0588-1.9646 0.15187l-26.479-0.31269c-4.3987-0.0518-8.6484 3.5001-9.4915 7.8135l-27.961 143.06c-0.76075 3.8954-4.3133 7.1138-8.2271 7.7076-3.9596-0.58917-7.7037-3.7712-8.7104-7.6004l-37.645-143.27c-1.1162-4.2575-5.5836-7.7076-9.9786-7.7076zm-99.895 0.0169c-4.3931 0-7.1243 3.4632-6.0918 7.7586l8.9496 37.249c1.0305 4.2854 2.7028 11.239 3.7273 15.512l60.548 251.98c1.0285 4.2814 5.4281 7.7553 9.8191 7.7537l244.88-0.0947c4.402-5e-3 7.9654-3.5808 7.9555-7.9829l13.226-49.328c-5e-3 -4.4056-3.5736-7.976-7.9791-7.9804l-204.9-0.51692c-4.407-0.012-8.8878-3.452-10.006-7.7175l-62.749-238.92c-1.1202-4.2615-5.6132-7.7163-9.9824-7.7163z" stroke-width="1.9932"/>
</svg>
